<svg xmlns="http://www.w3.org/2000/svg" xmlns:xlink="http://www.w3.org/1999/xlink" width="367" height="167.35" viewBox="0 0 367 167.35">
  <defs>
    <style>
      .cls-1 {
        fill: #1a1a1a;
      }

      .cls-2 {
        fill: #fff;
      }

      .cls-3 {
        fill: url(#radial-gradient);
      }

      .cls-4, .cls-5 {
        fill: none;
      }

      .cls-4, .cls-5, .cls-6 {
        stroke: red;
        stroke-miterlimit: 10;
      }

      .cls-4, .cls-6 {
        stroke-width: 1.53px;
      }

      .cls-5 {
        stroke-width: 0.75px;
      }

      .cls-6 {
        fill: url(#radial-gradient-2);
      }
    </style>
    <radialGradient id="radial-gradient" cx="222.45" cy="53.57" r="39.17" gradientUnits="userSpaceOnUse">
      <stop offset="0.5" stop-color="#fff"/>
      <stop offset="0.5" stop-color="#ccc"/>
    </radialGradient>
    <radialGradient id="radial-gradient-2" cx="226.16" cy="54" r="19.51" gradientTransform="translate(0 -26.23) scale(1 1.49)" gradientUnits="userSpaceOnUse">
      <stop offset="0.5" stop-color="#1a1a1a"/>
      <stop offset="0.5"/>
    </radialGradient>
  </defs>
  <g id="Layer_2" data-name="Layer 2">
    <g id="Layer_1-2" data-name="Layer 1">
      <g>
        <rect class="cls-1" width="367" height="113.09"/>
        <g>
          <path class="cls-2" d="M33.82,26.07H67.91v9.06H44v12.1h22v9.06H44V69H68.28v9.06H33.82Z"/>
          <path class="cls-2" d="M95.53,67.58h2.82l7.2-26.66h10L105,74.41q-1.41,4.16-2.75,7.61a27.48,27.48,0,0,1-3.12,6,13,13,0,0,1-4.2,3.9,12.9,12.9,0,0,1-9.13.93A17.12,17.12,0,0,1,83,91.75a15.47,15.47,0,0,1-2.23-1.34,13.68,13.68,0,0,1-1.56-1.3l5-6.6A12.92,12.92,0,0,0,86.47,84a5.41,5.41,0,0,0,2.52.7,4.35,4.35,0,0,0,3.53-1.56A16.16,16.16,0,0,0,95,78.05H89.73L74.29,40.92H84.76Z"/>
          <path class="cls-2" d="M157.38,74.12a13.11,13.11,0,0,1-2.49,1.74,24.45,24.45,0,0,1-3.56,1.6,27.43,27.43,0,0,1-4.49,1.18,28.85,28.85,0,0,1-5.2.45,25.23,25.23,0,0,1-8.5-1.34,16.63,16.63,0,0,1-10.33-10.06,23,23,0,0,1-1.37-8.2A21.83,21.83,0,0,1,123,50.91a17.19,17.19,0,0,1,4.27-6.13,17.91,17.91,0,0,1,6.35-3.67,24.45,24.45,0,0,1,7.87-1.23,24.1,24.1,0,0,1,5.83.75,15.86,15.86,0,0,1,5.53,2.56A13.67,13.67,0,0,1,157,48.05a16.46,16.46,0,0,1,1.6,7.72,35.72,35.72,0,0,1-.74,6.91H131.1a8.42,8.42,0,0,0,1,4,7.85,7.85,0,0,0,2.45,2.67A10.83,10.83,0,0,0,138,70.89a17.63,17.63,0,0,0,4.19.48,21.85,21.85,0,0,0,7.32-1,15.7,15.7,0,0,0,4.64-2.53Zm-16-26.51a12,12,0,0,0-3.64.53,10.14,10.14,0,0,0-3.08,1.55,8.45,8.45,0,0,0-2.26,2.53,7.74,7.74,0,0,0-1,3.4h18.26a8.18,8.18,0,0,0-2-5.86C146.18,48.33,144.12,47.61,141.34,47.61Z"/>
          <path class="cls-2" d="M193,56.89h9.21V78.05H168.07v-52h10.17V69H193Z"/>
          <path class="cls-3" d="M209.43,59.49a22.93,22.93,0,0,1,1.41-8.32,16.75,16.75,0,0,1,10.21-10,23.78,23.78,0,0,1,8.06-1.3,23.17,23.17,0,0,1,8.35,1.41,17.33,17.33,0,0,1,6.2,4,16.55,16.55,0,0,1,3.82,6.2,23.59,23.59,0,0,1,1.3,8,22.87,22.87,0,0,1-1.41,8.31,16.69,16.69,0,0,1-10.21,10,23.48,23.48,0,0,1-8,1.3,23.22,23.22,0,0,1-8.36-1.41,17.4,17.4,0,0,1-6.2-4,16.8,16.8,0,0,1-3.82-6.21A23.53,23.53,0,0,1,209.43,59.49Zm9.95,0a14.52,14.52,0,0,0,.67,4.52A11.08,11.08,0,0,0,222,67.66a8.88,8.88,0,0,0,3,2.41,10.31,10.31,0,0,0,11.1-1.89c1.81-1.84,2.71-4.73,2.71-8.69a12.86,12.86,0,0,0-2.52-8.28,8.68,8.68,0,0,0-7.2-3.16,11.45,11.45,0,0,0-3.86.63,7.6,7.6,0,0,0-3.09,2,10.23,10.23,0,0,0-2,3.57A16.16,16.16,0,0,0,219.38,59.49Z"/>
          <path class="cls-2" d="M295.93,40.92h12.62l1.12,4.46H310q3.87-5.49,12.48-5.5A17.6,17.6,0,0,1,328.71,41a12.25,12.25,0,0,1,4.9,3.38,15.71,15.71,0,0,1,3.16,5.79,27.87,27.87,0,0,1,1.11,8.39,27.34,27.34,0,0,1-1.26,8.58A18.21,18.21,0,0,1,333,73.6a15.55,15.55,0,0,1-5.79,4.08,20.28,20.28,0,0,1-7.8,1.41,30.73,30.73,0,0,1-4.52-.33,12.85,12.85,0,0,1-3.72-1.08V92.9H301.5V49.09h-5.57Zm23.61,7.13a9.81,9.81,0,0,0-5.16,1.41,7.33,7.33,0,0,0-3.23,4.23V69.14a7.84,7.84,0,0,0,3,1.3,16.71,16.71,0,0,0,4,.48,10.16,10.16,0,0,0,3.86-.71A7.78,7.78,0,0,0,325.11,68,10.93,10.93,0,0,0,327.19,64a19.4,19.4,0,0,0,.74-5.71c0-3.27-.79-5.79-2.37-7.58A7.72,7.72,0,0,0,319.54,48.05Z"/>
          <path class="cls-2" d="M290.73,48.73l-.48.14,3.08-1.39-13-8.62-2,15.37,3.36-1.52a13.65,13.65,0,0,1,1.61,6.78c0,4-.9,6.85-2.71,8.69a10.31,10.31,0,0,1-11.1,1.89,8.88,8.88,0,0,1-3-2.41A11.08,11.08,0,0,1,264.6,64a14.52,14.52,0,0,1-.67-4.52,16.16,16.16,0,0,1,.74-5.2,10.23,10.23,0,0,1,2-3.57,7.6,7.6,0,0,1,3.09-2,11.45,11.45,0,0,1,3.86-.63c.19,0,.35,0,.54.05L275.88,40q-1.08-.09-2.22-.09a23.78,23.78,0,0,0-8.06,1.3,16.75,16.75,0,0,0-10.21,10A22.93,22.93,0,0,0,254,59.49a23.53,23.53,0,0,0,1.3,8,16.8,16.8,0,0,0,3.82,6.21,17.4,17.4,0,0,0,6.2,4,23.22,23.22,0,0,0,8.36,1.41,23.48,23.48,0,0,0,8-1.3,16.69,16.69,0,0,0,10.21-10,22.87,22.87,0,0,0,1.41-8.31,23.59,23.59,0,0,0-1.3-8A16.86,16.86,0,0,0,290.73,48.73Z"/>
        </g>
      </g>
      <rect class="cls-4" x="206.11" y="36.49" width="46" height="46"/>
      <g>
        <line class="cls-5" x1="228.11" y1="58.49" x2="230.11" y2="60.49"/>
        <line class="cls-5" x1="230.11" y1="58.49" x2="228.11" y2="60.49"/>
      </g>
      <path class="cls-6" d="M219.38,59.49a14.52,14.52,0,0,0,.67,4.52A11.08,11.08,0,0,0,222,67.66a8.88,8.88,0,0,0,3,2.41,10.31,10.31,0,0,0,11.1-1.89c1.81-1.84,2.71-4.73,2.71-8.69a12.86,12.86,0,0,0-2.52-8.28,8.68,8.68,0,0,0-7.2-3.16,11.45,11.45,0,0,0-3.86.63,7.6,7.6,0,0,0-3.09,2,10.23,10.23,0,0,0-2,3.57A16.16,16.16,0,0,0,219.38,59.49Z"/>
      <g>
        <line class="cls-5" x1="228.11" y1="57.97" x2="230.11" y2="59.97"/>
        <line class="cls-5" x1="230.11" y1="57.97" x2="228.11" y2="59.97"/>
      </g>
      <g>
        <path d="M147.27,130.9a10.48,10.48,0,0,1,1.92,5.67,14,14,0,0,1-1,6,18.94,18.94,0,0,1-3.24,5.18,20.44,20.44,0,0,1-8.07,5.52,28.31,28.31,0,0,1-4.75,1.44,47.65,47.65,0,0,1-1.34,10.8,2.26,2.26,0,0,1-1.59,1.73,2.94,2.94,0,0,1-2.35-.34,3,3,0,0,1-1.49-1.82,16.26,16.26,0,0,1-.5-2.5c-.12-.89-.19-1.7-.22-2.42s0-1.61,0-2.66.09-1.88.14-2.48.12-1.47.22-2.64.17-2,.24-2.42c.06-.74.14-2,.24-3.65s.18-3,.26-4,.23-2.16.46-3.55a26.66,26.66,0,0,1,.86-3.77,4.59,4.59,0,0,1,.24-.52,17.2,17.2,0,0,0-2.3.91,2.12,2.12,0,0,1-2.79-.6,2.42,2.42,0,0,1-.24-2.91,7.79,7.79,0,0,1,2.31-2.42,11.36,11.36,0,0,1,3.33-1.58,29.51,29.51,0,0,1,3.51-.84,28.63,28.63,0,0,1,3.38-.39Q143.82,126,147.27,130.9Zm-8.45,12.77a11.66,11.66,0,0,0,1.58-1.87,12.06,12.06,0,0,0,1.3-2.4,5.56,5.56,0,0,0,.41-2.62,3.35,3.35,0,0,0-1-2.18q-1.79-1.68-7.68-1.39c-.74.06-1.48.14-2.21.24a2.72,2.72,0,0,1,1.63,2.06,23.11,23.11,0,0,1,.29,3.84c0,1.44,0,2.63-.1,3.55s-.19,2.24-.38,3.94A14.93,14.93,0,0,0,138.82,143.67Z"/>
        <path d="M162,149.67a3.61,3.61,0,0,1,2.16-.55,3,3,0,0,1,1.87.74,3.48,3.48,0,0,1,1,1.66,2.67,2.67,0,0,1-.55,2.18,16.52,16.52,0,0,1-3.84,4.13,11.52,11.52,0,0,1-4.9,2.35,5.29,5.29,0,0,1-4.44-.93,6.6,6.6,0,0,1-2.57-3.91,14.17,14.17,0,0,1-.33-2.07,16.49,16.49,0,0,1,0-2.47c0-.94.09-1.64.12-2.09s.11-1.28.24-2.49.21-1.91.24-2.07q1-9.45,1.11-11.9a3.05,3.05,0,0,1,1.94-3,3.9,3.9,0,0,1,3.65.33,3.58,3.58,0,0,1,1.8,3.29c0,1.22-.12,2.53-.27,3.94s-.29,2.62-.45,3.65-.37,2.33-.63,3.93-.44,2.85-.57,3.75c-.26,1.63-.42,2.89-.48,3.79,0,.25,0,.65-.05,1.2.26-.19.64-.46,1.15-.79l1.06-.7C160.05,151,161,150.34,162,149.67Z"/>
        <path d="M189.75,147.75a2.84,2.84,0,0,1,.52,1.54,2.48,2.48,0,0,1-.43,1.58,27.79,27.79,0,0,1-1.05,8.4,2.15,2.15,0,0,1-1.52,1.61,2.72,2.72,0,0,1-2.18-.31,3.21,3.21,0,0,1-1.44-1.73,25.12,25.12,0,0,1-.86-5.62c-1.64.1-2.69.18-3.17.24-.74.1-2,.36-3.84.77-.55,1.83-1,3.33-1.39,4.51a2.53,2.53,0,0,1-1.95,1.83,3,3,0,0,1-2.59-.65,2.84,2.84,0,0,1-1.13-2.42,25.8,25.8,0,0,1,.24-2.69,2.74,2.74,0,0,1-2.06-2.14,2.56,2.56,0,0,1,.91-2.81,11.39,11.39,0,0,1,2.3-1.34,85.29,85.29,0,0,1,3-9l.48-1.39c.22-.61.4-1.08.53-1.41s.33-.84.6-1.49.5-1.19.69-1.59.44-.89.75-1.48a7.48,7.48,0,0,1,.89-1.42c.28-.35.61-.74,1-1.18a4.07,4.07,0,0,1,1.13-1,11.17,11.17,0,0,1,1.25-.57,3.19,3.19,0,0,1,1.41-.22,7,7,0,0,1,1.56.29,5.06,5.06,0,0,1,1.61.94,4.88,4.88,0,0,1,1.18,1.58c.32.66.56,1.21.74,1.66a16.28,16.28,0,0,1,.6,1.92l.14.43a47.36,47.36,0,0,1,1.59,7.92C189.47,144.68,189.65,146.41,189.75,147.75Zm-7.3-1.77q-.28-3-.72-5.57c-.13-.67-.29-1.41-.48-2.21a9.86,9.86,0,0,1-.53,1.15c-.83,2-1.6,4-2.3,6.05-.1.26-.24.67-.43,1.25l.38-.1Q182,146,182.45,146Z"/>
        <path d="M208.42,129.27a2.16,2.16,0,0,1,3,.39,3.18,3.18,0,0,1,.91,3.12,11.87,11.87,0,0,1-.91,2.28,22.09,22.09,0,0,1-1.22,2.13q-.6.92-1.47,2.16c-.57.83-1,1.51-1.34,2a48.06,48.06,0,0,1-3.79,5.61c0,.61-.11,1.47-.22,2.57s-.18,1.87-.21,2.28c0,.26-.07.65-.1,1.18s-.06,1-.07,1.27-.06.72-.12,1.2a12.17,12.17,0,0,1-.24,1.25,9.76,9.76,0,0,1-.39,1.1,3.67,3.67,0,0,1-.62,1,5.69,5.69,0,0,1-.86.84,3,3,0,0,1-1.49.56,2.2,2.2,0,0,1-1.49-.41c-.26-.26-.5-.51-.72-.77a3.33,3.33,0,0,1-.55-.89c-.15-.33-.27-.61-.39-.84a3.17,3.17,0,0,1-.24-1q-.06-.66-.12-1a6.54,6.54,0,0,1,0-1.08c0-.52,0-.85,0-1s.05-.5.09-1.1.08-.95.08-1q.18-2.93.24-3.51a9.84,9.84,0,0,1-1.16-1.72,15.76,15.76,0,0,1-.79-1.64c-.14-.38-.41-1.07-.79-2.06-.22-.58-.62-1.47-1.18-2.69s-1-2.32-1.39-3.31a13.8,13.8,0,0,1-.74-2.83,2.54,2.54,0,0,1,1-2.45,2.12,2.12,0,0,1,2.49-.43,8.36,8.36,0,0,1,3.32,2.85,29.05,29.05,0,0,1,2.44,4.78c.2.42.45,1,.77,1.73.42-.77.91-1.62,1.49-2.55,0,0,.21-.32.53-.86s.52-.86.6-1,.27-.38.57-.86.52-.8.63-.94.31-.42.6-.82a8.94,8.94,0,0,1,.69-.86c.18-.18.41-.43.7-.77a7.35,7.35,0,0,1,.77-.79c.22-.19.49-.4.79-.62S208.13,129.46,208.42,129.27Z"/>
        <path d="M230.21,139.88a2.79,2.79,0,0,1,3.22.91,3.68,3.68,0,0,1,.6,3.41,3.39,3.39,0,0,1-2.62,2.45l-.14,0-.17.05-.17.05a.73.73,0,0,0-.19.07,17,17,0,0,1-.63,4.18,18.41,18.41,0,0,1-1.6,4,11.51,11.51,0,0,1-2.67,3.26,8.69,8.69,0,0,1-3.5,1.88,6.88,6.88,0,0,1-3.82.14,7.71,7.71,0,0,1-3-1.54,9.43,9.43,0,0,1-2.16-2.71,16.75,16.75,0,0,1-1.42-3.38,20.84,20.84,0,0,1-.69-3.6,21.71,21.71,0,0,1-.07-4.73,34.63,34.63,0,0,1,.76-4.92,16.51,16.51,0,0,1,1.83-4.54,13.07,13.07,0,0,1,3.05-3.62,9.06,9.06,0,0,1,5.37-1.92,8.61,8.61,0,0,1,5.11,1.7,9.86,9.86,0,0,1,3.48,4.49,2.21,2.21,0,0,1,0,1.73,2.91,2.91,0,0,1-1.06,1.34,2.31,2.31,0,0,1-1.56.41,1.78,1.78,0,0,1-1.39-.89,4.09,4.09,0,0,0-3.12-1.94,3.24,3.24,0,0,0-3.12,1.61,15.66,15.66,0,0,0-2.11,8.78,16.38,16.38,0,0,0,.1,1.71c.06.65.17,1.43.33,2.32a5.86,5.86,0,0,0,.77,2.16,1.1,1.1,0,0,0,1.25.63,2.76,2.76,0,0,0,1.65-1.61,11.72,11.72,0,0,0,1-3.19,2.7,2.7,0,0,1-1.18-.41,3.87,3.87,0,0,1-1-.86,3.61,3.61,0,0,1-.6-1.08,3,3,0,0,1,.12-2.26,4,4,0,0,1,1.66-1.73,6.12,6.12,0,0,1,2.59-.86Q228,140.45,230.21,139.88Z"/>
        <path d="M256.18,151.83c.13.16.46.64,1,1.44s.91,1.37,1.1,1.71.45.83.77,1.48a8.72,8.72,0,0,1,.67,1.85,6.22,6.22,0,0,1,.14,1.78,2.49,2.49,0,0,1-3.36,2.06,7,7,0,0,1-1.32-.77,11.34,11.34,0,0,1-1.1-.91,10.17,10.17,0,0,1-1-1.17q-.56-.75-.84-1.2l-.81-1.35-.77-1.27c-.1-.13-.41-.6-.94-1.42s-.88-1.36-1.05-1.63-.46-.73-.84-1.37-.71-1.2-1-1.7-.5-1-.72-1.51a14.84,14.84,0,0,1-1.59.67q-.19,6-1.87,8.93a2.38,2.38,0,0,1-2.52,1.17,2.55,2.55,0,0,1-2.33-1.56q-1.2-2.73-.86-7.92a.14.14,0,0,1-.1,0,.29.29,0,0,1-.19,0,3.17,3.17,0,0,1-1.75-1.68,3.31,3.31,0,0,1-.17-2.45,2.77,2.77,0,0,1,1.68-1.78,10.23,10.23,0,0,1,1.15-.43c.16-2.62.35-4.93.58-6.91,0-.16.09-.69.19-1.58a2.45,2.45,0,0,1-1.66-1.13,3.21,3.21,0,0,1-.5-2,2.22,2.22,0,0,1,1-1.73,14,14,0,0,1,3.17-1.61,17.92,17.92,0,0,1,4-1,25.58,25.58,0,0,1,4.2-.17,14.19,14.19,0,0,1,4,.75,11.85,11.85,0,0,1,3.24,1.7,6.22,6.22,0,0,1,2,2.88,9,9,0,0,1-1.13,7.61,14.76,14.76,0,0,1-2.43,2.83,38.17,38.17,0,0,1-3.09,2.43A65.16,65.16,0,0,1,256.18,151.83Zm-5.76-15.69a2.26,2.26,0,0,0,.62-1.44,1.14,1.14,0,0,0-.74-.92,5.36,5.36,0,0,0-1.49-.45,6.85,6.85,0,0,0-1.56-.07,20.8,20.8,0,0,0-2.21.24,55.37,55.37,0,0,1-.14,6.67A22.33,22.33,0,0,0,250.42,136.14Z"/>
        <path d="M280.61,139.35a18.28,18.28,0,0,1-1,10.9,23.84,23.84,0,0,1-2.78,5.3,9.11,9.11,0,0,1-4,3.24,8.65,8.65,0,0,1-4.84.43,9.94,9.94,0,0,1-4.42-2.06q-3.79-3.12-4-10a20.8,20.8,0,0,1,2.64-10.8,14.36,14.36,0,0,1,2.59-3.36,6.47,6.47,0,0,1,3.31-1.83,7,7,0,0,1,3.19-.89,7.11,7.11,0,0,1,3.43.75,9.21,9.21,0,0,1,3.72,3.33A15.92,15.92,0,0,1,280.61,139.35ZM273,147.9a12.57,12.57,0,0,0,.86-5.72,12,12,0,0,0-.62-2.64,3.32,3.32,0,0,0-1.3-1.82,2.31,2.31,0,0,0-1.73-.14,13,13,0,0,0-3.31,7.68,6.58,6.58,0,0,0,0,2c.1.9.22,1.78.38,2.64a3.65,3.65,0,0,0,1.06,2.07,1.83,1.83,0,0,0,2,.33C271.12,152.06,272,150.58,273,147.9Z"/>
        <path d="M303.65,140.89a33.74,33.74,0,0,1-.82,9.31,22.75,22.75,0,0,1-1,3,14.84,14.84,0,0,1-1.51,2.86,12,12,0,0,1-2.06,2.37,7.86,7.86,0,0,1-2.67,1.51,7.24,7.24,0,0,1-3.26.34,9.19,9.19,0,0,1-3.94-1.37,9.89,9.89,0,0,1-2.93-2.83,15.9,15.9,0,0,1-1.82-3.67,19.17,19.17,0,0,1-.91-4.08,34.27,34.27,0,0,1-.29-3.58,35.32,35.32,0,0,1,.12-3.77,23.46,23.46,0,0,1,.6-3.76,17.21,17.21,0,0,1,1.27-3.46,11,11,0,0,1,2.09-2.95,2.28,2.28,0,0,1,1.94-.7,2.84,2.84,0,0,1,1.73,1.06,3.15,3.15,0,0,1,.79,1.94,8.77,8.77,0,0,1-.11,1.95c-.12.68-.27,1.44-.46,2.28s-.32,1.48-.38,2a28.85,28.85,0,0,0-.34,6.39,18.57,18.57,0,0,0,.21,2c.12.71.31,1.58.58,2.62a5.65,5.65,0,0,0,1.18,2.42,1.68,1.68,0,0,0,1.82.58q2.6-.72,3-9a13.25,13.25,0,0,0,0-2.43c-.08-.91-.16-1.77-.24-2.59s-.15-1.65-.21-2.5a14.37,14.37,0,0,1,0-2.54,9.71,9.71,0,0,1,.5-2.33,2.64,2.64,0,0,1,2.64-1.89,3.26,3.26,0,0,1,2.88,1.6,7.4,7.4,0,0,1,.8,1.59,9.5,9.5,0,0,1,.45,2c.1.77.16,1.37.19,1.8s.06,1.14.08,2.12S303.65,140.7,303.65,140.89Z"/>
        <path d="M328.9,132a9.11,9.11,0,0,1-.1,3.19,35.82,35.82,0,0,1-1,3.89c-.47,1.45-.78,2.5-.94,3.14-.38,1.7-1,4.8-1.72,9.31a11.48,11.48,0,0,0-.22,1.3c-.08.61-.15,1.09-.22,1.44s-.17.81-.31,1.37a5.33,5.33,0,0,1-.5,1.34,10.7,10.7,0,0,1-.7,1.06,2.63,2.63,0,0,1-1,.84,6.28,6.28,0,0,1-1.39.43,4.13,4.13,0,0,1-1.59-.12,4.45,4.45,0,0,1-1.22-.55,3.42,3.42,0,0,1-.94-1,11.18,11.18,0,0,1-.67-1.2,10,10,0,0,1-.5-1.46c-.18-.63-.31-1.1-.39-1.42s-.17-.78-.26-1.39q-.92-4.56-1.83-8.21c-.06.42-.15,1-.26,1.8s-.17,1.21-.17,1.27c-.06.45-.21,2.06-.43,4.83a31.36,31.36,0,0,1-1,6.21,2.24,2.24,0,0,1-1.34,1.47,2.93,2.93,0,0,1-2.14.09,2.22,2.22,0,0,1-1.46-1.32,12.38,12.38,0,0,1-.89-3.21,25.58,25.58,0,0,1-.29-3.34,27.36,27.36,0,0,1,.22-3.62c.16-1.38.3-2.5.43-3.36s.32-2,.58-3.27c.19-1,.31-1.56.35-1.8l.36-1.7a12.14,12.14,0,0,1,.56-2c.17-.42.4-1,.67-1.63a6.94,6.94,0,0,1,1-1.71,7.41,7.41,0,0,1,1.22-1.22,4.42,4.42,0,0,1,2.74-1.06,4.24,4.24,0,0,1,2.78.92,4.72,4.72,0,0,1,.87.91,9.24,9.24,0,0,1,.64,1,5.9,5.9,0,0,1,.48,1.17c.15.47.26.86.34,1.18s.18.74.29,1.27a9.81,9.81,0,0,0,.31,1.18q.24,1,.72,2.64c.26-1.41.45-2.4.58-3s.36-1.4.69-2.54a14.26,14.26,0,0,1,1.15-2.86,11.51,11.51,0,0,1,1.56-2.11,2.72,2.72,0,0,1,1.92-.74,3.32,3.32,0,0,1,2,.74A2.67,2.67,0,0,1,328.9,132Z"/>
        <path d="M347.76,129.8a8.46,8.46,0,0,1,5,4.51,12.74,12.74,0,0,1,1.06,7.15q-.76,6.58-7.87,13.3a20.94,20.94,0,0,1-6.34,4.42,2.67,2.67,0,0,1-3,.62,5.1,5.1,0,0,1-3.85-1.68,2.34,2.34,0,0,1-.62-1.92,3,3,0,0,1,1-1.82,3.86,3.86,0,0,1,.82-.63v-1.82c0-1.92,0-4.07,0-6.43,0-.39,0-.88,0-1.49v-1.63c0-.48,0-1,0-1.59s.07-1.14.1-1.7.08-1.08.14-1.56l-.86.19a2.91,2.91,0,0,1-2.5-.34,3.36,3.36,0,0,1-1.39-1.89,4,4,0,0,1,.1-2.45,3.22,3.22,0,0,1,1.63-1.9,21.59,21.59,0,0,1,8.13-2.2A21,21,0,0,1,347.76,129.8ZM347,142.09a12.18,12.18,0,0,0,.31-2.81,3.06,3.06,0,0,0-.88-2.16A4,4,0,0,0,344,136a21.62,21.62,0,0,0-2.79,0c.07,1.34.09,2.36.07,3.05s-.06,1.7-.14,3-.12,2.33-.12,3c0,1.44-.05,3.06-.05,4.85.07-.06.11-.1.15-.1a32.53,32.53,0,0,0,3.76-3.79A10.8,10.8,0,0,0,347,142.09Z"/>
      </g>
    </g>
  </g>
</svg>
